PathFileType	4	(X/Y/Z)	/Users/itak/Documents/Research/Walk-IL/dataset/trc/00312_00010.trc
DataRate	CameraRate	NumFrames	NumMarkers	Units	OrigDataRate	OrigDataStartFrame	OrigNumFrames
100.000000	100.000000	4	53	mm	100.000000	67	543
Frame#	Time	RPSI			LPSI			L3			STRN			T10			C7			CLAV			RBAK			LBAK			LSHO			LUPA			LAEL			LAOL			LWTS			LWPS			LFRA			LIFD			LHPS			LHTS			RSHO			RUPA			RAEL			RAOL			RWTS			RWPS			RFRA			RIFD			RHTS			RHPS			RBHD			LFHD			RFHD			LBHD			LHIP			RHIP			RASI			LASI			LKNE			LTHI			LANK			LTIP			LTOE			LMT1			LMT5			LHEE			RKNE			RTHI			RANK			RTIP			RTOE			RMT1			RMT5			RHEE			
		X1	Y1	Z1	X2	Y2	Z2	X3	Y3	Z3	X4	Y4	Z4	X5	Y5	Z5	X6	Y6	Z6	X7	Y7	Z7	X8	Y8	Z8	X9	Y9	Z9	X10	Y10	Z10	X11	Y11	Z11	X12	Y12	Z12	X13	Y13	Z13	X14	Y14	Z14	X15	Y15	Z15	X16	Y16	Z16	X17	Y17	Z17	X18	Y18	Z18	X19	Y19	Z19	X20	Y20	Z20	X21	Y21	Z21	X22	Y22	Z22	X23	Y23	Z23	X24	Y24	Z24	X25	Y25	Z25	X26	Y26	Z26	X27	Y27	Z27	X28	Y28	Z28	X29	Y29	Z29	X30	Y30	Z30	X31	Y31	Z31	X32	Y32	Z32	X33	Y33	Z33	X34	Y34	Z34	X35	Y35	Z35	X36	Y36	Z36	X37	Y37	Z37	X38	Y38	Z38	X39	Y39	Z39	X40	Y40	Z40	X41	Y41	Z41	X42	Y42	Z42	X43	Y43	Z43	X44	Y44	Z44	X45	Y45	Z45	X46	Y46	Z46	X47	Y47	Z47	X48	Y48	Z48	X49	Y49	Z49	X50	Y50	Z50	X51	Y51	Z51	X52	Y52	Z52	X53	Y53	Z53	

68	0.67	-1211.794921875	1010.735229492188	-616.333740234375	-1201.449829101562	999.4196166992188	-790.4043579101562	-1185.478759765625	1074.583251953125	-706.9609985351562	-938.0014038085938	1251.624755859375	-709.6956787109375	-1199.465576171875	1185.923217773438	-710.8981323242188	-1157.531860351562	1431.369018554688	-731.4334106445312	-999.7542114257812	1353.501953125	-717.7031860351562	-1210.955688476562	1295.81591796875	-652.4794921875	-1169.670166015625	1391.444702148438	-835.1591186523438	-1078.711303710938	1400.144165039062	-885.3966674804688	-1099.23779296875	1280.680419921875	-957.9359130859375	-1083.85302734375	1076.140502929688	-968.0055541992188	-1146.540405273438	1062.33740234375	-909.5553588867188	-1001.054565429688	856.0499877929688	-907.1648559570312	-1029.139282226562	842.2666015625	-972.9971313476562	-1065.005981445312	972.1616821289062	-973.0902099609375	-992.3831176757812	670.7801513671875	-907.7149047851562	-1021.792236328125	753.6769409179688	-969.1065673828125	-953.7620239257812	769.7181396484375	-930.3458251953125	-1095.260986328125	1414.160034179688	-569.6162109375	-1101.70166015625	1355.966186523438	-501.2314758300781	-1091.447143554688	1087.463623046875	-449.2912292480469	-1136.889404296875	1079.527587890625	-533.1560668945312	-997.2351684570312	866.0924072265625	-518.6828002929688	-1026.185668945312	859.9321899414062	-439.5001525878906	-1063.936889648438	1020.678100585938	-441.6946105957031	-989.837890625	680.433837890625	-522.1124267578125	-963.5728759765625	750.6302490234375	-508.6201477050781	-1000.686889648438	749.0382080078125	-448.2218933105469	-1144.5341796875	1588.16748046875	-663.296875	-959.8014526367188	1637.41064453125	-756.9176635742188	-973.43994140625	1630.958618164062	-665.0927734375	-1121.65380859375	1588.061157226562	-807.3847045898438	-1130.193115234375	949.90380859375	-882.0059814453125	-1113.515625	960.9122314453125	-508.6904602050781	-991.1890869140625	963.6739501953125	-573.1500244140625	-992.7974853515625	957.110595703125	-825.0400390625	-1062.847412109375	485.2942504882812	-845.2033081054688	-1069.856201171875	627.1752319335938	-868.2905883789062	-1162.902465820312	47.89278793334961	-827.3360595703125	-1117.510498046875	261.2996520996094	-846.3226318359375	-954.6809692382812	40.31077194213867	-769.6517333984375	-1025.087280273438	31.7187328338623	-727.7401733398438	-1040.633666992188	42.20372772216797	-840.0388793945312	-1208.092407226562	44.01536178588867	-766.8939819335938	-1076.869750976562	485.8172912597656	-535.0435180664062	-1046.559692382812	742.3200073242188	-516.855712890625	-1152.6845703125	45.95386123657227	-556.3754272460938	-1070.93359375	362.8978881835938	-545.5468139648438	-956.1598510742188	45.12688446044922	-601.2844848632812	-1012.90771484375	39.97455596923828	-643.4224243164062	-1048.978515625	38.7488899230957	-531.4475708007812	-1203.659423828125	37.93543243408203	-606.2882690429688	
69	0.68	-1211.757446289062	1010.787414550781	-616.3231811523438	-1201.40380859375	999.4566650390625	-790.3848876953125	-1185.4375	1074.628173828125	-706.9586181640625	-937.9391479492188	1251.659057617188	-709.6703491210938	-1199.357421875	1185.98681640625	-710.9215698242188	-1157.442138671875	1431.403076171875	-731.4641723632812	-999.609130859375	1353.5703125	-717.6592407226562	-1210.846801757812	1295.875366210938	-652.4647216796875	-1169.4775390625	1391.498779296875	-835.1793212890625	-1078.515014648438	1400.199829101562	-885.3794555664062	-1099.033325195312	1280.769653320312	-957.9998168945312	-1083.7548828125	1076.215209960938	-968.1497802734375	-1146.402465820312	1062.420776367188	-909.732666015625	-1001.025817871094	856.0551147460938	-907.4240112304688	-1029.16357421875	842.3074951171875	-973.2858276367188	-1065.007690429688	972.2490234375	-973.3148803710938	-992.8036499023438	670.7498168945312	-908.1093139648438	-1022.046875	753.7250366210938	-969.4326171875	-953.8048706054688	769.841552734375	-930.7839965820312	-1095.158325195312	1414.243041992188	-569.59423828125	-1101.612915039062	1356.054809570312	-501.1987609863281	-1091.42626953125	1087.544311523438	-449.2769775390625	-1136.820678710938	1079.6142578125	-533.1729736328125	-997.2705078125	866.1451416015625	-518.7178955078125	-1026.269165039062	859.9692993164062	-439.5267944335938	-1063.925659179688	1020.757629394531	-441.6824645996094	-989.9238891601562	680.4867553710938	-522.1484985351562	-963.7313232421875	750.661376953125	-508.6485900878906	-1000.764953613281	749.0202026367188	-448.2406311035156	-1144.50341796875	1588.203002929688	-663.2965698242188	-959.7154541015625	1637.382202148438	-756.94580078125	-973.2902221679688	1630.943481445312	-665.1021728515625	-1121.529541015625	1588.0869140625	-807.3760375976562	-1130.140014648438	949.9288330078125	-881.9826049804688	-1113.463745117188	960.9280395507812	-508.650634765625	-991.2320556640625	963.6500244140625	-573.1112670898438	-992.7403564453125	957.111328125	-824.96728515625	-1062.960205078125	485.3151245117188	-845.1912841796875	-1069.921752929688	627.1853637695312	-868.2730712890625	-1162.904418945312	47.88710784912109	-827.3319702148438	-1117.5625	261.3069152832031	-846.310546875	-954.6973876953125	40.29383850097656	-769.6555786132812	-1025.089111328125	31.71765327453613	-727.7357177734375	-1040.642456054688	42.21546173095703	-840.0374755859375	-1208.089233398438	43.99907684326172	-766.8929443359375	-1076.935302734375	485.8177490234375	-535.0274047851562	-1046.0986328125	741.762451171875	-517.626220703125	-1152.702514648438	45.95648574829102	-556.3694458007812	-1070.98291015625	362.9237670898438	-545.517822265625	-956.1774291992188	45.1342887878418	-601.2861938476562	-1012.921997070312	39.98261260986328	-643.4205932617188	-1048.981567382812	38.74995040893555	-531.4472045898438	-1203.671630859375	37.92752838134766	-606.2841796875	
70	0.6900000000000001	-1211.709838867188	1010.839294433594	-616.3076782226562	-1201.356567382812	999.4966430664062	-790.3639526367188	-1185.396362304688	1074.674926757812	-706.9490966796875	-937.8519287109375	1251.693359375	-709.6450805664062	-1199.25	1186.051147460938	-710.9328002929688	-1157.350219726562	1431.436157226562	-731.4891357421875	-999.4588012695312	1353.633666992188	-717.6134033203125	-1210.7021484375	1295.9365234375	-652.43505859375	-1169.276977539062	1391.554077148438	-835.1931762695312	-1078.3271484375	1400.249145507812	-885.362060546875	-1098.835205078125	1280.85302734375	-958.0552368164062	-1083.663208007812	1076.28857421875	-968.2908325195312	-1146.273315429688	1062.506958007812	-909.9024658203125	-1000.992980957031	856.0511474609375	-907.685302734375	-1029.17919921875	842.3412475585938	-973.5629272460938	-1065.008911132812	972.3350219726562	-973.5360107421875	-993.151611328125	670.7020874023438	-908.5084228515625	-1022.267150878906	753.7666625976562	-969.7639770507812	-953.8143310546875	769.9530029296875	-931.22705078125	-1095.0380859375	1414.32666015625	-569.5665283203125	-1101.517211914062	1356.140747070312	-501.1607666015625	-1091.386474609375	1087.6279296875	-449.2507934570312	-1136.733032226562	1079.696044921875	-533.1680908203125	-997.2882690429688	866.204345703125	-518.74609375	-1026.32177734375	860.005615234375	-439.5429382324219	-1063.898803710938	1020.838623046875	-441.6626586914062	-989.98583984375	680.5361328125	-522.176513671875	-963.8517456054688	750.6982421875	-508.6665954589844	-1000.8271484375	749.013427734375	-448.2611389160156	-1144.468383789062	1588.239868164062	-663.2973022460938	-959.609375	1637.356079101562	-756.9696044921875	-973.1287231445312	1630.93212890625	-665.1063232421875	-1121.412841796875	1588.108764648438	-807.3607177734375	-1130.101440429688	949.9556884765625	-881.962158203125	-1113.402587890625	960.94140625	-508.6112365722656	-991.3096923828125	963.6036376953125	-573.087646484375	-992.6826782226562	957.1126708984375	-824.9052734375	-1063.054443359375	485.3333740234375	-845.182373046875	-1069.979248046875	627.1947021484375	-868.2577514648438	-1162.908935546875	47.8818473815918	-827.3265380859375	-1117.606079101562	261.3123168945312	-846.2988891601562	-954.6997680664062	40.2655029296875	-769.6641235351562	-1025.091064453125	31.72113227844238	-727.7304077148438	-1040.651123046875	42.22711181640625	-840.0365600585938	-1208.08642578125	43.98654556274414	-766.8919067382812	-1077.001708984375	485.8192138671875	-535.0125122070312	-1045.779174804688	741.3593139648438	-518.1818237304688	-1152.706298828125	45.94964218139648	-556.361328125	-1071.0380859375	362.9492797851562	-545.490966796875	-956.1902465820312	45.13899993896484	-601.2879638671875	-1012.935729980469	39.9902458190918	-643.4202880859375	-1048.98583984375	38.75020599365234	-531.4468994140625	-1203.685791015625	37.92123794555664	-606.2796630859375	
71	0.7000000000000001	-1211.648803710938	1010.889892578125	-616.2857055664062	-1201.30322265625	999.5390625	-790.3402709960938	-1185.353515625	1074.724609375	-706.9319458007812	-937.7418212890625	1251.725219726562	-709.6199951171875	-1199.140258789062	1186.117431640625	-710.9312744140625	-1157.254760742188	1431.469360351562	-731.5073852539062	-999.3053588867188	1353.69140625	-717.564697265625	-1210.529418945312	1295.999633789062	-652.3917846679688	-1169.074462890625	1391.611694335938	-835.2012939453125	-1078.14453125	1400.294555664062	-885.3446655273438	-1098.63818359375	1280.933227539062	-958.1013793945312	-1083.565551757812	1076.364990234375	-968.4276123046875	-1146.154296875	1062.59814453125	-910.0617065429688	-1000.955993652344	856.0450439453125	-907.9445190429688	-1029.198608398438	842.3732299804688	-973.8262939453125	-1065.006469726562	972.4212036132812	-973.7503662109375	-993.4102172851562	670.6387329101562	-908.9049072265625	-1022.463256835938	753.806640625	-970.1022338867188	-953.796142578125	770.0521850585938	-931.6466674804688	-1094.899047851562	1414.410278320312	-569.5337524414062	-1101.41552734375	1356.224365234375	-501.1182250976562	-1091.326293945312	1087.713134765625	-449.2126159667969	-1136.623657226562	1079.773315429688	-533.139404296875	-997.2891845703125	866.2653198242188	-518.7640380859375	-1026.341796875	860.0409545898438	-439.54736328125	-1063.854614257812	1020.919982910156	-441.6351623535156	-990.0214233398438	680.5813598632812	-522.19287109375	-963.93505859375	750.74267578125	-508.6710510253906	-1000.869079589844	749.021240234375	-448.2823181152344	-1144.426879882812	1588.279907226562	-663.2996826171875	-959.4803466796875	1637.33642578125	-756.9854736328125	-972.9577026367188	1630.921875	-665.1033325195312	-1121.304443359375	1588.12939453125	-807.3397216796875	-1130.077392578125	949.9837646484375	-881.9446411132812	-1113.332763671875	960.9525146484375	-508.5724792480469	-991.412353515625	963.5396728515625	-573.0783081054688	-992.6236572265625	957.1163330078125	-824.8541870117188	-1063.131591796875	485.3500366210938	-845.1763916015625	-1070.027954101562	627.2030029296875	-868.245361328125	-1162.915405273438	47.87739562988281	-827.3204345703125	-1117.64111328125	261.3168029785156	-846.2880249023438	-954.684326171875	40.22708511352539	-769.6767578125	-1025.090576171875	31.71891975402832	-727.7296752929688	-1040.659545898438	42.23766708374023	-840.0360717773438	-1208.0849609375	43.97926712036133	-766.8911743164062	-1077.071899414062	485.8217468261719	-534.9992065429688	-1045.611938476562	741.1204833984375	-518.5136108398438	-1152.701416015625	45.93680572509766	-556.3517456054688	-1071.10009765625	362.976806640625	-545.468017578125	-956.1992797851562	45.14154434204102	-601.2900390625	-1012.947814941406	39.9968147277832	-643.4208984375	-1048.990356445312	38.74899291992188	-531.4462890625	-1203.701171875	37.91667938232422	-606.2748413085938	
